<svg xmlns="http://www.w3.org/2000/svg" viewBox="0 0 78.59 76.93"><path fill="#CC614D" d="M4.7 62.66C5.54 62.78 6.37 62.48 7.15 61.78C8.31 60.75 9.55 59.76 10.75 58.81C11.23 58.43 11.7 58.06 12.17 57.68C12.8 57.17 13.43 56.68 14.08 56.16L14.73 55.65C15.21 56.27 15.69 56.87 16.16 57.47C17.62 59.31 18.99 61.05 20.13 63L20.03 63.1C19.86 63.25 19.71 63.38 19.56 63.51C18.71 64.19 17.85 64.88 16.99 65.56C15.22 66.98 13.38 68.45 11.6 69.92C10.67 70.69 10.23 71.37 10.24 72.07C10.24 72.78 10.69 73.48 11.66 74.26C13.1 75.46 14.82 76.26 16.66 76.6C17.87 76.82 19.09 76.92 20.32 76.93C21.45 76.93 22.59 76.83 23.71 76.64C32.22 75.18 38.34 67.31 37.65 58.71C37.53 56.94 37.1 55.21 36.39 53.58L55.27 38.03C55.73 38.15 56.17 38.27 56.59 38.38C57.52 38.64 58.46 38.86 59.41 39.03C61.48 39.34 63.58 39.24 65.61 38.73C67.63 38.22 69.53 37.31 71.19 36.06C73.04 34.69 74.59 32.97 75.76 31C76.93 29.03 77.69 26.84 77.99 24.57C78.59 20.41 77.24 16.7 76 13.94C75.95 13.83 75.9 13.72 75.85 13.61C75.7 13.33 75.58 13.03 75.5 12.73C75.29 11.84 74.94 11.29 74.42 11.05C73.94 10.83 73.35 10.9 72.65 11.25C71.72 11.76 70.87 12.39 70.11 13.12C68.39 14.71 66.67 16.34 65 17.93C64.42 18.49 63.83 19.04 63.24 19.6L55.57 13.18L55.59 13.15C55.64 13.04 55.7 12.93 55.77 12.83C57.64 10.39 59.91 7.56 62.6 5.08C62.96 4.77 63.29 4.41 63.57 4.03C64.03 3.33 63.96 2.58 63.4 2.19C63.27 2.11 63.14 2.02 63.01 1.93C62.15 1.33 61.25 0.71 60.24 0.44C58.85 0.11 57.42 0 55.99 0.12C52.57 0.29 49.24 1.25 46.25 2.92C40.73 6.08 37.92 10.68 37.89 16.59C37.88 18.55 38.37 20.47 39.33 22.18C33.16 26.98 27.64 31.38 22.72 36.44C20.23 35.2 17.64 35.31 15.43 35.59C9.61 36.33 5.36 39.05 2.78 43.68C0.85 47.13 0 51.07 0.33 55C0.51 57.28 1.08 59.14 2.06 60.71C2.76 61.81 3.72 62.52 4.7 62.66ZM25.75 38.07C27.68 36.45 29.62 34.84 31.56 33.23C33.75 31.41 35.94 29.59 38.13 27.77C38.88 27.14 39.61 26.47 40.33 25.83C40.97 25.25 41.63 24.65 42.3 24.09C42.92 23.56 42.9 22.98 42.79 22.42C42.16 19.18 42.09 16.31 42.6 13.66C42.85 12.27 43.38 10.95 44.15 9.77C44.92 8.58 45.92 7.57 47.09 6.77C50.45 4.42 54.51 3.28 58.61 3.55C58.88 3.57 59.14 3.61 59.4 3.68C59.22 3.86 59.06 4.03 58.9 4.2C58.24 4.91 57.58 5.61 56.91 6.31C55.23 8.09 53.5 9.93 51.82 11.77C50.68 13.01 50.69 13.9 51.85 15.15C53.96 17.44 56.05 19.61 58.57 22.2C59.03 22.65 59.54 23.05 60.08 23.39C62.04 24.68 62.91 24.81 64.89 23.21C66.67 21.77 68.43 20.24 70.13 18.76C70.86 18.13 71.58 17.5 72.31 16.87C72.6 16.62 72.88 16.38 73.2 16.1L73.29 16.03C73.89 18.75 74.42 21.34 73.74 23.94C72.04 30.49 67.45 33.97 60.46 34C59.61 34.01 58.76 33.99 57.93 33.96C56.98 33.94 56 33.91 55.03 33.92C54.42 33.93 53.81 34.12 53.31 34.48L52.4 35.21C49.48 37.54 46.47 39.95 43.6 42.43C41.45 44.29 39.33 46.25 37.28 48.15C36.37 48.99 35.46 49.83 34.55 50.66C34.53 50.69 34.5 50.71 34.48 50.74C34.47 50.75 34.46 50.76 34.45 50.77C34.31 50.89 34.16 51.01 33.99 51.13C33.58 51.38 33.23 51.74 32.97 52.15C32.77 52.67 32.68 53.22 32.71 53.77C32.71 53.93 32.7 54.09 32.69 54.24C32.66 54.75 32.65 55.26 32.63 55.77C32.6 56.48 32.58 57.21 32.52 57.93C32.47 58.45 32.44 58.97 32.41 59.5C32.36 60.96 32.19 62.41 31.89 63.84C30.79 68.47 27.7 71.3 22.72 72.26C20.73 72.68 18.67 72.69 16.67 72.3C16.26 72.21 15.85 72.08 15.37 71.94C15.29 71.91 15.2 71.89 15.12 71.86C15.64 71.47 16.14 71.08 16.64 70.7C18.19 69.53 19.65 68.42 21.08 67.27C21.82 66.64 22.53 65.97 23.19 65.26C23.41 65.03 23.64 64.8 23.86 64.58C24.75 63.69 24.87 62.58 24.21 61.37C23.77 60.53 23.24 59.74 22.62 59.01C20.91 57.05 19.08 55.05 17.2 53.05C15.82 51.58 14.95 51.53 13.33 52.82C11.76 54.06 10.19 55.31 8.63 56.56C7.74 57.28 6.84 57.99 5.94 58.71C5.77 58.85 5.58 58.99 5.36 59.15C5.35 59.15 5.35 59.16 5.34 59.17C4.59 56.67 4.51 54.03 5.1 51.49C5.37 50.36 5.72 49.24 6.15 48.16C7.83 43.96 10.99 41.64 15.81 41.08L17.87 40.84C19.69 40.62 21.52 40.41 23.35 40.2C23.68 40.2 24.01 40.09 24.29 39.9C24.56 39.7 24.77 39.43 24.89 39.11C25.09 38.7 25.38 38.34 25.75 38.07Z"/></svg>